<svg xmlns="http://www.w3.org/2000/svg" width="420mm" height="297mm" viewBox="0 0 420 297"><style>
  .object{fill:none;stroke:#f5f5f5;stroke-width:.34;stroke-linecap:round;stroke-linejoin:round}
  .hidden{fill:none;stroke:#9a9aa2;stroke-width:.16;stroke-dasharray:1.5 1.2}
  .thin,.extension{fill:none;stroke:#c9c9cf;stroke-width:.16}
  .leader{stroke:#f5f5f5;stroke-width:.2}
  .dot{fill:#f5f5f5}
  .balloon{fill:#0b0b0c;stroke:#f5f5f5;stroke-width:.3}
  .dimension{stroke:#f5f5f5;stroke-width:.16} .dimension-text{font-family:Arial,sans-serif;fill:#f5f5f5}
  .arrow{fill:#f5f5f5} .label{font-family:Arial,sans-serif;fill:#fff}
  .label-bold{font-family:Arial,sans-serif;fill:#fff;font-weight:700}
  .sub{font-family:Arial,sans-serif;fill:#bdbdc4}
  .accent{font-family:Arial,sans-serif;fill:#ff2a2a;font-weight:700}
  .center{stroke:#9a9aa2;stroke-width:.15;stroke-dasharray:5 1 1 1}
  .cut{stroke:#fff;stroke-width:.42;stroke-dasharray:8 1 2 1}
  .frame{fill:none;stroke:#f5f5f5;stroke-width:.3}
  .border{fill:none;stroke:#f5f5f5;stroke-width:.5}
  .grid-line{stroke:#9a9aa2;stroke-width:.15}
  .head{fill:#17171b;stroke:#f5f5f5;stroke-width:.3}
  .wire{fill:none;stroke:#ff2a2a;stroke-width:.45;stroke-linecap:round;stroke-linejoin:round}
  .wire-rf{fill:none;stroke:#ff2a2a;stroke-width:.45;stroke-dasharray:2 .8}
  .pin{fill:#f5f5f5}
</style><defs>
  <pattern id="grid-small" width="5" height="5" patternUnits="userSpaceOnUse"><path d="M5 0H0V5" fill="none" stroke="#ffffff" stroke-width=".08" opacity=".10"/></pattern>
  <pattern id="grid-large" width="25" height="25" patternUnits="userSpaceOnUse"><path d="M25 0H0V25" fill="none" stroke="#ffffff" stroke-width=".14" opacity=".16"/></pattern>
  <pattern id="hatch" width="2.6" height="2.6" patternUnits="userSpaceOnUse" patternTransform="rotate(45)"><path d="M0 0 V2.6" stroke="#d6d6dc" stroke-width=".18"/></pattern>
  <pattern id="hatch2" width="1.6" height="1.6" patternUnits="userSpaceOnUse" patternTransform="rotate(-45)"><path d="M0 0 V1.6" stroke="#ff2a2a" stroke-width=".18"/></pattern>
</defs>
<rect width="420" height="297" fill="#0b0b0c"/>
<rect width="420" height="297" fill="url(#grid-small)"/>
<rect width="420" height="297" fill="url(#grid-large)"/><rect x="5.00" y="5.00" width="410.00" height="287.00" class="border"/><rect x="10.00" y="10.00" width="400.00" height="277.00" class="border"/><text x="35.00" y="8.90" class="label" font-size="2.6" text-anchor="middle">1</text><text x="35.00" y="290.90" class="label" font-size="2.6" text-anchor="middle">1</text><line x1="60.00" y1="5.00" x2="60.00" y2="10.00" class="frame"/><line x1="60.00" y1="287.00" x2="60.00" y2="292.00" class="frame"/><text x="85.00" y="8.90" class="label" font-size="2.6" text-anchor="middle">2</text><text x="85.00" y="290.90" class="label" font-size="2.6" text-anchor="middle">2</text><line x1="110.00" y1="5.00" x2="110.00" y2="10.00" class="frame"/><line x1="110.00" y1="287.00" x2="110.00" y2="292.00" class="frame"/><text x="135.00" y="8.90" class="label" font-size="2.6" text-anchor="middle">3</text><text x="135.00" y="290.90" class="label" font-size="2.6" text-anchor="middle">3</text><line x1="160.00" y1="5.00" x2="160.00" y2="10.00" class="frame"/><line x1="160.00" y1="287.00" x2="160.00" y2="292.00" class="frame"/><text x="185.00" y="8.90" class="label" font-size="2.6" text-anchor="middle">4</text><text x="185.00" y="290.90" class="label" font-size="2.6" text-anchor="middle">4</text><line x1="210.00" y1="5.00" x2="210.00" y2="10.00" class="frame"/><line x1="210.00" y1="287.00" x2="210.00" y2="292.00" class="frame"/><text x="235.00" y="8.90" class="label" font-size="2.6" text-anchor="middle">5</text><text x="235.00" y="290.90" class="label" font-size="2.6" text-anchor="middle">5</text><line x1="260.00" y1="5.00" x2="260.00" y2="10.00" class="frame"/><line x1="260.00" y1="287.00" x2="260.00" y2="292.00" class="frame"/><text x="285.00" y="8.90" class="label" font-size="2.6" text-anchor="middle">6</text><text x="285.00" y="290.90" class="label" font-size="2.6" text-anchor="middle">6</text><line x1="310.00" y1="5.00" x2="310.00" y2="10.00" class="frame"/><line x1="310.00" y1="287.00" x2="310.00" y2="292.00" class="frame"/><text x="335.00" y="8.90" class="label" font-size="2.6" text-anchor="middle">7</text><text x="335.00" y="290.90" class="label" font-size="2.6" text-anchor="middle">7</text><line x1="360.00" y1="5.00" x2="360.00" y2="10.00" class="frame"/><line x1="360.00" y1="287.00" x2="360.00" y2="292.00" class="frame"/><text x="385.00" y="8.90" class="label" font-size="2.6" text-anchor="middle">8</text><text x="385.00" y="290.90" class="label" font-size="2.6" text-anchor="middle">8</text><text x="7.50" y="34.08" class="label" font-size="2.6" text-anchor="middle">A</text><text x="412.50" y="34.08" class="label" font-size="2.6" text-anchor="middle">A</text><line x1="5.00" y1="56.17" x2="10.00" y2="56.17" class="frame"/><line x1="410.00" y1="56.17" x2="415.00" y2="56.17" class="frame"/><text x="7.50" y="80.25" class="label" font-size="2.6" text-anchor="middle">B</text><text x="412.50" y="80.25" class="label" font-size="2.6" text-anchor="middle">B</text><line x1="5.00" y1="102.33" x2="10.00" y2="102.33" class="frame"/><line x1="410.00" y1="102.33" x2="415.00" y2="102.33" class="frame"/><text x="7.50" y="126.42" class="label" font-size="2.6" text-anchor="middle">C</text><text x="412.50" y="126.42" class="label" font-size="2.6" text-anchor="middle">C</text><line x1="5.00" y1="148.50" x2="10.00" y2="148.50" class="frame"/><line x1="410.00" y1="148.50" x2="415.00" y2="148.50" class="frame"/><text x="7.50" y="172.58" class="label" font-size="2.6" text-anchor="middle">D</text><text x="412.50" y="172.58" class="label" font-size="2.6" text-anchor="middle">D</text><line x1="5.00" y1="194.67" x2="10.00" y2="194.67" class="frame"/><line x1="410.00" y1="194.67" x2="415.00" y2="194.67" class="frame"/><text x="7.50" y="218.75" class="label" font-size="2.6" text-anchor="middle">E</text><text x="412.50" y="218.75" class="label" font-size="2.6" text-anchor="middle">E</text><line x1="5.00" y1="240.83" x2="10.00" y2="240.83" class="frame"/><line x1="410.00" y1="240.83" x2="415.00" y2="240.83" class="frame"/><text x="7.50" y="264.92" class="label" font-size="2.6" text-anchor="middle">F</text><text x="412.50" y="264.92" class="label" font-size="2.6" text-anchor="middle">F</text><rect x="10.00" y="10.00" width="400.00" height="8.00" class="head"/><path d="M10 18 H410" stroke="#ff2a2a" stroke-width=".7"/><text x="14.00" y="15.60" class="label-bold" font-size="3.6" text-anchor="start">REDLINE / RL-MB-01</text><text x="80.00" y="15.60" class="accent" font-size="2.5" text-anchor="start">CONCEPT STUDY - PROVISIONAL DIMENSIONS - DO NOT BUILD WITHOUT REVIEW</text><rect x="318.00" y="21.00" width="84.00" height="9.20" class="frame"/><rect x="318.00" y="21.00" width="84.00" height="4.60" class="head"/><text x="319.40" y="24.13" class="label-bold" font-size="2.2" text-anchor="start">REV</text><line x1="328.00" y1="21.00" x2="328.00" y2="30.20" class="grid-line"/><text x="329.40" y="24.13" class="label-bold" font-size="2.2" text-anchor="start">DESCRIPTION</text><line x1="380.00" y1="21.00" x2="380.00" y2="30.20" class="grid-line"/><text x="381.40" y="24.13" class="label-bold" font-size="2.2" text-anchor="start">DATE</text><line x1="318.00" y1="25.60" x2="402.00" y2="25.60" class="grid-line"/><text x="319.40" y="28.73" class="label" font-size="2.1" text-anchor="start">0</text><line x1="328.00" y1="21.00" x2="328.00" y2="30.20" class="grid-line"/><text x="329.40" y="28.73" class="label" font-size="2.1" text-anchor="start">Dashboard interface plan</text><line x1="380.00" y1="21.00" x2="380.00" y2="30.20" class="grid-line"/><text x="381.40" y="28.73" class="label" font-size="2.1" text-anchor="start">2026-10-05</text><path d="M10 250 H410 M232 250 V287 M232 263 H410 M232 275 H410 M292 263 V287 M342 263 V287 M372 263 V287" class="border"/><text x="14.00" y="256.00" class="label-bold" font-size="2.8" text-anchor="start">GENERAL NOTES</text><text x="14.00" y="262.00" class="sub" font-size="2.35" text-anchor="start">1. Zones and labels taken from web/src/main.js; widths and grids from web/src/style.css.</text><text x="14.00" y="267.60" class="sub" font-size="2.35" text-anchor="start">2. CSS breakpoints: 1250 px, 930 px, 620 px (panels stack, sidebar hides on mobile).</text><text x="14.00" y="273.20" class="sub" font-size="2.35" text-anchor="start">3. Demo data in web/src/demo-trips.json: real route and weather, simulated vehicles and events.</text><text x="14.00" y="278.80" class="sub" font-size="2.35" text-anchor="start">4. Rule: the platform never shows an alert it has not received. Stored alerts are shown as stored.</text><text x="236.00" y="256.50" class="label-bold" font-size="4" text-anchor="start">INTERFACE: CONTROL CENTER</text><text x="236.00" y="261.00" class="sub" font-size="2.4" text-anchor="start">Redline control center (web/), desktop view at 1440 px</text><text x="236.00" y="267.00" class="sub" font-size="2" text-anchor="start">DRAWING NO.</text><text x="236.00" y="272.40" class="label-bold" font-size="2.8" text-anchor="start">RL-UI-01</text><text x="296.00" y="267.00" class="sub" font-size="2" text-anchor="start">SCALE</text><text x="296.00" y="272.40" class="label-bold" font-size="2.8" text-anchor="start">about 0.14 mm / px</text><text x="346.00" y="267.00" class="sub" font-size="2" text-anchor="start">REV</text><text x="346.00" y="272.40" class="label-bold" font-size="2.8" text-anchor="start">0</text><text x="376.00" y="267.00" class="sub" font-size="2" text-anchor="start">SHEET</text><text x="376.00" y="272.40" class="label-bold" font-size="2.8" text-anchor="start">1 / 1</text><text x="236.00" y="279.50" class="sub" font-size="2.2" text-anchor="start">DRAWN BY: M. ABAAQIL</text><text x="296.00" y="279.50" class="sub" font-size="2.2" text-anchor="start">DATE: 2026-10-05</text><text x="346.00" y="279.50" class="sub" font-size="2.2" text-anchor="start">MATERIAL: -</text><rect x="18.00" y="28.00" width="184.32" height="203.52" class="border"/><rect x="18.00" y="28.00" width="34.82" height="203.52" class="frame"/><text x="21.33" y="35.94" class="accent" font-size="3.6" text-anchor="start">REDLINE</text><text x="21.33" y="38.75" class="sub" font-size="1.5" text-anchor="start">TRACK  PREDICT  SURVIVE</text><text x="21.33" y="44.64" class="sub" font-size="1.6" text-anchor="start">SHIPMENTS</text><rect x="20.05" y="46.43" width="30.72" height="11.01" class="head"/><text x="21.84" y="50.02" class="label" font-size="1.8" text-anchor="start">RL-1001  Paris to Lyon</text><rect x="21.84" y="53.09" width="12.29" height="2.82" class="frame"/><text x="22.86" y="55.14" class="accent" font-size="1.4" text-anchor="start">STATUS</text><rect x="20.05" y="58.72" width="30.72" height="11.01" class="frame"/><text x="21.84" y="62.30" class="label" font-size="1.8" text-anchor="start">RL-2207  Paris to Lyon</text><rect x="21.84" y="65.38" width="12.29" height="2.82" class="frame"/><text x="22.86" y="67.42" class="accent" font-size="1.4" text-anchor="start">STATUS</text><text x="21.33" y="74.08" class="sub" font-size="1.6" text-anchor="start">VIEWS</text><text x="23.12" y="78.18" class="label" font-size="1.8" text-anchor="start">Overview</text><text x="23.12" y="83.30" class="label" font-size="1.8" text-anchor="start">Map</text><text x="23.12" y="88.42" class="label" font-size="1.8" text-anchor="start">Alerts</text><text x="23.12" y="93.54" class="label" font-size="1.8" text-anchor="start">Links and ETA</text><text x="23.12" y="98.66" class="label" font-size="1.8" text-anchor="start">Black box</text><rect x="52.82" y="28.00" width="149.50" height="8.19" class="frame"/><text x="57.68" y="32.86" class="sub" font-size="1.7" text-anchor="start">REDLINE / CONTROL CENTER / RL-2207</text><rect x="146.00" y="30.05" width="24.32" height="4.10" class="frame"/><text x="147.79" y="32.74" class="accent" font-size="1.5" text-anchor="start">SIMULATED SHIPMENTS</text><rect x="174.93" y="29.79" width="24.32" height="4.61" class="head"/><text x="176.72" y="32.74" class="label-bold" font-size="1.6" text-anchor="start">EXPORT INCIDENT LOG</text><text x="57.68" y="42.08" class="accent" font-size="1.6" text-anchor="start">TRACK . PREDICT . SURVIVE</text><text x="57.68" y="49.50" class="label-bold" font-size="4.4" text-anchor="start">KNOW WHERE IT IS.</text><text x="57.68" y="55.90" class="label-bold" font-size="4.4" text-anchor="start">KNOW WHEN IT LANDS.</text><text x="57.68" y="62.30" class="accent" font-size="4.4" text-anchor="start">KNOW WHAT HAPPENED.</text><rect x="57.68" y="65.89" width="139.52" height="7.17" class="frame"/><text x="59.73" y="70.24" class="sub" font-size="1.6" text-anchor="start">Simulation: route and weather are real open data, the rest is simulated</text><rect x="57.68" y="74.85" width="139.52" height="18.69" class="head"/><text x="60.24" y="78.69" class="accent" font-size="1.5" text-anchor="start">SHIPMENT RL-2207 . DEVICE RL-0107</text><text x="60.24" y="83.81" class="label-bold" font-size="2.6" text-anchor="start">PHARMACEUTICAL SHIPMENT, PARIS TO LYON</text><line x1="60.24" y1="86.62" x2="98.64" y2="86.62" class="thin"/><rect x="172.88" y="77.15" width="21.76" height="4.35" class="head"/><text x="174.67" y="80.10" class="label-bold" font-size="1.6" text-anchor="start">THEFT SUSPECTED</text><rect x="57.68" y="95.58" width="33.54" height="13.31" class="frame"/><text x="59.73" y="99.17" class="sub" font-size="1.5" text-anchor="start">ARRIVAL</text><text x="59.73" y="105.06" class="label-bold" font-size="3.0" text-anchor="start">00:00</text><line x1="59.73" y1="107.10" x2="78.93" y2="107.10" class="thin"/><rect x="92.88" y="95.58" width="33.54" height="13.31" class="frame"/><text x="94.93" y="99.17" class="sub" font-size="1.5" text-anchor="start">DEVICE MODE</text><text x="94.93" y="105.06" class="label-bold" font-size="3.0" text-anchor="start">00:00</text><line x1="94.93" y1="107.10" x2="114.13" y2="107.10" class="thin"/><rect x="128.08" y="95.58" width="33.54" height="13.31" class="frame"/><text x="130.13" y="99.17" class="sub" font-size="1.5" text-anchor="start">LAST CONTACT</text><text x="130.13" y="105.06" class="label-bold" font-size="3.0" text-anchor="start">00:00</text><line x1="130.13" y1="107.10" x2="149.33" y2="107.10" class="thin"/><rect x="163.28" y="95.58" width="33.54" height="13.31" class="frame"/><text x="165.33" y="99.17" class="sub" font-size="1.5" text-anchor="start">SPEED / RELAYS</text><text x="165.33" y="105.06" class="label-bold" font-size="3.0" text-anchor="start">00:00</text><line x1="165.33" y1="107.10" x2="184.53" y2="107.10" class="thin"/><rect x="57.68" y="111.20" width="84.48" height="71.68" class="frame"/><text x="59.98" y="115.30" class="label-bold" font-size="1.7" text-anchor="start">LIVE MAP . POSITION, CORRIDOR AND RELAYS</text><rect x="59.73" y="117.60" width="80.38" height="62.72" class="frame"/><polyline class="wire" points="66.64,125.28 78.16,135.52 87.12,145.76 99.92,156.00 112.72,166.24 122.96,173.92 133.20,177.76"/><circle cx="89.68" cy="147.04" r="6" class="balloon"/><circle cx="82.00" cy="156.00" r="3" class="dot"/><rect x="144.21" y="111.20" width="52.99" height="71.68" class="frame"/><text x="146.51" y="115.30" class="label-bold" font-size="1.7" text-anchor="start">PLATFORM FEED . ALERTS</text><rect x="146.26" y="118.37" width="48.90" height="14.08" class="head"/><rect x="148.30" y="120.93" width="1.79" height="1.79" class="frame"/><line x1="152.14" y1="122.72" x2="184.14" y2="122.72" class="thin"/><line x1="152.14" y1="125.79" x2="190.54" y2="125.79" class="thin"/><text x="152.14" y="130.91" class="accent" font-size="1.4" text-anchor="start">CRITICAL   FLEET RELAY</text><rect x="146.26" y="134.24" width="48.90" height="14.08" class="frame"/><rect x="148.30" y="136.80" width="1.79" height="1.79" class="frame"/><line x1="152.14" y1="138.59" x2="184.14" y2="138.59" class="thin"/><line x1="152.14" y1="141.66" x2="190.54" y2="141.66" class="thin"/><text x="152.14" y="146.78" class="accent" font-size="1.4" text-anchor="start">CRITICAL   FLEET RELAY</text><rect x="146.26" y="150.11" width="48.90" height="14.08" class="frame"/><rect x="148.30" y="152.67" width="1.79" height="1.79" class="frame"/><line x1="152.14" y1="154.46" x2="184.14" y2="154.46" class="thin"/><line x1="152.14" y1="157.54" x2="190.54" y2="157.54" class="thin"/><text x="152.14" y="162.66" class="accent" font-size="1.4" text-anchor="start">CRITICAL   FLEET RELAY</text><rect x="146.26" y="165.98" width="48.90" height="14.08" class="frame"/><rect x="148.30" y="168.54" width="1.79" height="1.79" class="frame"/><line x1="152.14" y1="170.34" x2="184.14" y2="170.34" class="thin"/><line x1="152.14" y1="173.41" x2="190.54" y2="173.41" class="thin"/><text x="152.14" y="178.53" class="accent" font-size="1.4" text-anchor="start">CRITICAL   FLEET RELAY</text><rect x="57.68" y="184.93" width="139.52" height="12.29" class="frame"/><text x="60.75" y="189.54" class="label-bold" font-size="1.8" text-anchor="start">REPLAY</text><line x1="60.75" y1="193.12" x2="169.04" y2="193.12" class="wire"/><text x="181.84" y="193.89" class="label-bold" font-size="3.0" text-anchor="start">01:12:50</text><rect x="57.68" y="199.26" width="139.52" height="27.14" class="frame"/><text x="59.98" y="203.10" class="label-bold" font-size="1.7" text-anchor="start">LINKS . MODES . ARRIVAL ESTIMATE OR LAST GASP</text><rect x="59.98" y="205.41" width="64.00" height="4.35" class="frame"/><rect x="59.98" y="211.30" width="64.00" height="4.35" class="frame"/><rect x="128.08" y="205.41" width="66.56" height="12.80" class="frame"/><text x="130.64" y="212.32" class="sub" font-size="1.6" text-anchor="start">ETA CHART / LAST GASP LOG</text><line x1="35.41" y1="107.36" x2="27.41" y2="107.36" class="leader"/><circle cx="35.41" cy="107.36" r=".7" class="dot"/><circle cx="27.41" cy="107.36" r="3.6" class="balloon"/><text x="27.41" y="108.51" class="label-bold" font-size="3.2" text-anchor="middle">1</text><line x1="99.92" y1="32.10" x2="99.92" y2="25.10" class="leader"/><circle cx="99.92" cy="32.10" r=".7" class="dot"/><circle cx="99.92" cy="25.10" r="3.6" class="balloon"/><text x="99.92" y="26.25" class="label-bold" font-size="3.2" text-anchor="middle">2</text><line x1="165.20" y1="56.16" x2="173.20" y2="52.16" class="leader"/><circle cx="165.20" cy="56.16" r=".7" class="dot"/><circle cx="173.20" cy="52.16" r="3.6" class="balloon"/><text x="173.20" y="53.31" class="label-bold" font-size="3.2" text-anchor="middle">3</text><line x1="197.20" y1="84.06" x2="203.20" y2="82.06" class="leader"/><circle cx="197.20" cy="84.06" r=".7" class="dot"/><circle cx="203.20" cy="82.06" r="3.6" class="balloon"/><text x="203.20" y="83.21" class="label-bold" font-size="3.2" text-anchor="middle">4</text><line x1="197.20" y1="102.24" x2="203.20" y2="102.24" class="leader"/><circle cx="197.20" cy="102.24" r=".7" class="dot"/><circle cx="203.20" cy="102.24" r="3.6" class="balloon"/><text x="203.20" y="103.39" class="label-bold" font-size="3.2" text-anchor="middle">5</text><line x1="57.68" y1="148.32" x2="49.68" y2="148.32" class="leader"/><circle cx="57.68" cy="148.32" r=".7" class="dot"/><circle cx="49.68" cy="148.32" r="3.6" class="balloon"/><text x="49.68" y="149.47" class="label-bold" font-size="3.2" text-anchor="middle">6</text><line x1="196.18" y1="150.88" x2="202.18" y2="150.88" class="leader"/><circle cx="196.18" cy="150.88" r=".7" class="dot"/><circle cx="202.18" cy="150.88" r="3.6" class="balloon"/><text x="202.18" y="152.03" class="label-bold" font-size="3.2" text-anchor="middle">7</text><line x1="169.04" y1="193.12" x2="175.04" y2="205.12" class="leader"/><circle cx="169.04" cy="193.12" r=".7" class="dot"/><circle cx="175.04" cy="205.12" r="3.6" class="balloon"/><text x="175.04" y="206.27" class="label-bold" font-size="3.2" text-anchor="middle">8</text><line x1="128.08" y1="212.32" x2="128.08" y2="222.32" class="leader"/><circle cx="128.08" cy="212.32" r=".7" class="dot"/><circle cx="128.08" cy="222.32" r="3.6" class="balloon"/><text x="128.08" y="223.47" class="label-bold" font-size="3.2" text-anchor="middle">9</text><text x="252.00" y="34.00" class="label-bold" font-size="3.2" text-anchor="start">ZONE LIST</text><rect x="252.00" y="37.00" width="151.00" height="56.00" class="frame"/><rect x="252.00" y="37.00" width="151.00" height="5.60" class="head"/><text x="253.40" y="40.81" class="label-bold" font-size="2.0" text-anchor="start">NO</text><line x1="259.00" y1="37.00" x2="259.00" y2="93.00" class="grid-line"/><text x="260.40" y="40.81" class="label-bold" font-size="2.0" text-anchor="start">ZONE</text><line x1="285.00" y1="37.00" x2="285.00" y2="93.00" class="grid-line"/><text x="286.40" y="40.81" class="label-bold" font-size="2.0" text-anchor="start">CONTENT</text><line x1="361.00" y1="37.00" x2="361.00" y2="93.00" class="grid-line"/><text x="362.40" y="40.81" class="label-bold" font-size="2.0" text-anchor="start">DATA / ACTION</text><line x1="252.00" y1="42.60" x2="403.00" y2="42.60" class="grid-line"/><text x="253.40" y="46.41" class="label" font-size="1.75" text-anchor="start">1</text><line x1="259.00" y1="37.00" x2="259.00" y2="93.00" class="grid-line"/><text x="260.40" y="46.41" class="label" font-size="1.75" text-anchor="start">Sidebar</text><line x1="285.00" y1="37.00" x2="285.00" y2="93.00" class="grid-line"/><text x="286.40" y="46.41" class="label" font-size="1.75" text-anchor="start">Logo, shipment cards with live status, view links</text><line x1="361.00" y1="37.00" x2="361.00" y2="93.00" class="grid-line"/><text x="362.40" y="46.41" class="label" font-size="1.75" text-anchor="start">One card per shipment</text><line x1="252.00" y1="48.20" x2="403.00" y2="48.20" class="grid-line"/><text x="253.40" y="52.01" class="label" font-size="1.75" text-anchor="start">2</text><line x1="259.00" y1="37.00" x2="259.00" y2="93.00" class="grid-line"/><text x="260.40" y="52.01" class="label" font-size="1.75" text-anchor="start">Top bar</text><line x1="285.00" y1="37.00" x2="285.00" y2="93.00" class="grid-line"/><text x="286.40" y="52.01" class="label" font-size="1.75" text-anchor="start">Breadcrumb, simulation pill, export</text><line x1="361.00" y1="37.00" x2="361.00" y2="93.00" class="grid-line"/><text x="362.40" y="52.01" class="label" font-size="1.75" text-anchor="start">CSV of the incident log</text><line x1="252.00" y1="53.80" x2="403.00" y2="53.80" class="grid-line"/><text x="253.40" y="57.61" class="label" font-size="1.75" text-anchor="start">3</text><line x1="259.00" y1="37.00" x2="259.00" y2="93.00" class="grid-line"/><text x="260.40" y="57.61" class="label" font-size="1.75" text-anchor="start">Hero and notice</text><line x1="285.00" y1="37.00" x2="285.00" y2="93.00" class="grid-line"/><text x="286.40" y="57.61" class="label" font-size="1.75" text-anchor="start">Promise, and what is real versus simulated</text><line x1="361.00" y1="37.00" x2="361.00" y2="93.00" class="grid-line"/><text x="362.40" y="57.61" class="label" font-size="1.75" text-anchor="start">Always visible</text><line x1="252.00" y1="59.40" x2="403.00" y2="59.40" class="grid-line"/><text x="253.40" y="63.21" class="label" font-size="1.75" text-anchor="start">4</text><line x1="259.00" y1="37.00" x2="259.00" y2="93.00" class="grid-line"/><text x="260.40" y="63.21" class="label" font-size="1.75" text-anchor="start">Shipment header</text><line x1="285.00" y1="37.00" x2="285.00" y2="93.00" class="grid-line"/><text x="286.40" y="63.21" class="label" font-size="1.75" text-anchor="start">Title, cargo, vehicle, status chip</text><line x1="361.00" y1="37.00" x2="361.00" y2="93.00" class="grid-line"/><text x="362.40" y="63.21" class="label" font-size="1.75" text-anchor="start">tripStatus()</text><line x1="252.00" y1="65.00" x2="403.00" y2="65.00" class="grid-line"/><text x="253.40" y="68.81" class="label" font-size="1.75" text-anchor="start">5</text><line x1="259.00" y1="37.00" x2="259.00" y2="93.00" class="grid-line"/><text x="260.40" y="68.81" class="label" font-size="1.75" text-anchor="start">KPIs</text><line x1="285.00" y1="37.00" x2="285.00" y2="93.00" class="grid-line"/><text x="286.40" y="68.81" class="label" font-size="1.75" text-anchor="start">Arrival, device mode, last contact, speed or relays</text><line x1="361.00" y1="37.00" x2="361.00" y2="93.00" class="grid-line"/><text x="362.40" y="68.81" class="label" font-size="1.75" text-anchor="start">platformView()</text><line x1="252.00" y1="70.60" x2="403.00" y2="70.60" class="grid-line"/><text x="253.40" y="74.41" class="label" font-size="1.75" text-anchor="start">6</text><line x1="259.00" y1="37.00" x2="259.00" y2="93.00" class="grid-line"/><text x="260.40" y="74.41" class="label" font-size="1.75" text-anchor="start">Live map</text><line x1="285.00" y1="37.00" x2="285.00" y2="93.00" class="grid-line"/><text x="286.40" y="74.41" class="label" font-size="1.75" text-anchor="start">Corridor, plan, track, alerts, fleet relays</text><line x1="361.00" y1="37.00" x2="361.00" y2="93.00" class="grid-line"/><text x="362.40" y="74.41" class="label" font-size="1.75" text-anchor="start">Leaflet + OpenStreetMap</text><line x1="252.00" y1="76.20" x2="403.00" y2="76.20" class="grid-line"/><text x="253.40" y="80.01" class="label" font-size="1.75" text-anchor="start">7</text><line x1="259.00" y1="37.00" x2="259.00" y2="93.00" class="grid-line"/><text x="260.40" y="80.01" class="label" font-size="1.75" text-anchor="start">Alerts feed</text><line x1="285.00" y1="37.00" x2="285.00" y2="93.00" class="grid-line"/><text x="286.40" y="80.01" class="label" font-size="1.75" text-anchor="start">What the platform received, and what is still stored on the device</text><line x1="361.00" y1="37.00" x2="361.00" y2="93.00" class="grid-line"/><text x="362.40" y="80.01" class="label" font-size="1.75" text-anchor="start">Severity, channel, delay</text><line x1="252.00" y1="81.80" x2="403.00" y2="81.80" class="grid-line"/><text x="253.40" y="85.61" class="label" font-size="1.75" text-anchor="start">8</text><line x1="259.00" y1="37.00" x2="259.00" y2="93.00" class="grid-line"/><text x="260.40" y="85.61" class="label" font-size="1.75" text-anchor="start">Replay</text><line x1="285.00" y1="37.00" x2="285.00" y2="93.00" class="grid-line"/><text x="286.40" y="85.61" class="label" font-size="1.75" text-anchor="start">Scrub or play the whole trip</text><line x1="361.00" y1="37.00" x2="361.00" y2="93.00" class="grid-line"/><text x="362.40" y="85.61" class="label" font-size="1.75" text-anchor="start">Filters what is known at time t</text><line x1="252.00" y1="87.40" x2="403.00" y2="87.40" class="grid-line"/><text x="253.40" y="91.21" class="label" font-size="1.75" text-anchor="start">9</text><line x1="259.00" y1="37.00" x2="259.00" y2="93.00" class="grid-line"/><text x="260.40" y="91.21" class="label" font-size="1.75" text-anchor="start">Links, modes, ETA</text><line x1="285.00" y1="37.00" x2="285.00" y2="93.00" class="grid-line"/><text x="286.40" y="91.21" class="label" font-size="1.75" text-anchor="start">Link and mode strips, plan versus live ETA, last gasp</text><line x1="361.00" y1="37.00" x2="361.00" y2="93.00" class="grid-line"/><text x="362.40" y="91.21" class="label" font-size="1.75" text-anchor="start">eta.js, model.js</text><text x="252.00" y="98.00" class="label-bold" font-size="3" text-anchor="start">DETAIL A: ALERT CARD (3:1)</text><rect x="252.00" y="102.00" width="134.98" height="37.40" class="frame"/><circle cx="260.16" cy="110.84" r="2.38" class="dot"/><text x="269.00" y="112.20" class="label-bold" font-size="2.6" text-anchor="start">Unauthorized stop</text><text x="361.48" y="112.20" class="label" font-size="2.2" text-anchor="start">00:28:00</text><text x="269.00" y="121.04" class="sub" font-size="2.1" text-anchor="start">Stopped 10 min outside every authorized zone</text><text x="269.00" y="133.28" class="accent" font-size="2.0" text-anchor="start">HIGH</text><text x="286.00" y="133.28" class="label" font-size="2.0" text-anchor="start">FLEET RELAY . RL-PEER-07</text><text x="330.20" y="133.28" class="accent" font-size="2.0" text-anchor="start">DELIVERED 9 min LATER</text><text x="252.00" y="147.40" class="label" font-size="2.2" text-anchor="start">a  severity dot</text><text x="252.00" y="152.60" class="label" font-size="2.2" text-anchor="start">b  title and time of the event on the device</text><text x="252.00" y="157.80" class="label" font-size="2.2" text-anchor="start">c  detail</text><text x="252.00" y="163.00" class="label" font-size="2.2" text-anchor="start">d  severity, channel, delay before delivery</text><text x="252.00" y="196.00" class="label-bold" font-size="3" text-anchor="start">USER FLOW</text><text x="252.00" y="202.00" class="label" font-size="2.25" text-anchor="start">1. Pick a shipment (1), read its status chip and KPIs (4, 5).</text><text x="252.00" y="207.40" class="label" font-size="2.25" text-anchor="start">2. Follow the alerts (7); each shows the channel it travelled and how late it arrived.</text><text x="252.00" y="212.80" class="label" font-size="2.25" text-anchor="start">3. Click an alert to centre the map on it (6).</text><text x="252.00" y="218.20" class="label" font-size="2.25" text-anchor="start">4. Replay (8) to see only what the platform knew at that moment.</text><text x="252.00" y="223.60" class="label" font-size="2.25" text-anchor="start">5. Check the arrival estimate or the last gasp (9). Export the log (2).</text></svg>