<svg xmlns="http://www.w3.org/2000/svg" width="420mm" height="297mm" viewBox="0 0 420 297"><style>
  .object{fill:none;stroke:#f5f5f5;stroke-width:.34;stroke-linecap:round;stroke-linejoin:round}
  .hidden{fill:none;stroke:#9a9aa2;stroke-width:.16;stroke-dasharray:1.5 1.2}
  .thin,.extension{fill:none;stroke:#c9c9cf;stroke-width:.16}
  .leader{stroke:#f5f5f5;stroke-width:.2}
  .dot{fill:#f5f5f5}
  .balloon{fill:#0b0b0c;stroke:#f5f5f5;stroke-width:.3}
  .dimension{stroke:#f5f5f5;stroke-width:.16} .dimension-text{font-family:Arial,sans-serif;fill:#f5f5f5}
  .arrow{fill:#f5f5f5} .label{font-family:Arial,sans-serif;fill:#fff}
  .label-bold{font-family:Arial,sans-serif;fill:#fff;font-weight:700}
  .sub{font-family:Arial,sans-serif;fill:#bdbdc4}
  .accent{font-family:Arial,sans-serif;fill:#ff2a2a;font-weight:700}
  .center{stroke:#9a9aa2;stroke-width:.15;stroke-dasharray:5 1 1 1}
  .cut{stroke:#fff;stroke-width:.42;stroke-dasharray:8 1 2 1}
  .frame{fill:none;stroke:#f5f5f5;stroke-width:.3}
  .border{fill:none;stroke:#f5f5f5;stroke-width:.5}
  .grid-line{stroke:#9a9aa2;stroke-width:.15}
  .head{fill:#17171b;stroke:#f5f5f5;stroke-width:.3}
  .wire{fill:none;stroke:#ff2a2a;stroke-width:.45;stroke-linecap:round;stroke-linejoin:round}
  .wire-rf{fill:none;stroke:#ff2a2a;stroke-width:.45;stroke-dasharray:2 .8}
  .pin{fill:#f5f5f5}
</style><defs>
  <pattern id="grid-small" width="5" height="5" patternUnits="userSpaceOnUse"><path d="M5 0H0V5" fill="none" stroke="#ffffff" stroke-width=".08" opacity=".10"/></pattern>
  <pattern id="grid-large" width="25" height="25" patternUnits="userSpaceOnUse"><path d="M25 0H0V25" fill="none" stroke="#ffffff" stroke-width=".14" opacity=".16"/></pattern>
  <pattern id="hatch" width="2.6" height="2.6" patternUnits="userSpaceOnUse" patternTransform="rotate(45)"><path d="M0 0 V2.6" stroke="#d6d6dc" stroke-width=".18"/></pattern>
  <pattern id="hatch2" width="1.6" height="1.6" patternUnits="userSpaceOnUse" patternTransform="rotate(-45)"><path d="M0 0 V1.6" stroke="#ff2a2a" stroke-width=".18"/></pattern>
</defs>
<rect width="420" height="297" fill="#0b0b0c"/>
<rect width="420" height="297" fill="url(#grid-small)"/>
<rect width="420" height="297" fill="url(#grid-large)"/><rect x="5.00" y="5.00" width="410.00" height="287.00" class="border"/><rect x="10.00" y="10.00" width="400.00" height="277.00" class="border"/><text x="35.00" y="8.90" class="label" font-size="2.6" text-anchor="middle">1</text><text x="35.00" y="290.90" class="label" font-size="2.6" text-anchor="middle">1</text><line x1="60.00" y1="5.00" x2="60.00" y2="10.00" class="frame"/><line x1="60.00" y1="287.00" x2="60.00" y2="292.00" class="frame"/><text x="85.00" y="8.90" class="label" font-size="2.6" text-anchor="middle">2</text><text x="85.00" y="290.90" class="label" font-size="2.6" text-anchor="middle">2</text><line x1="110.00" y1="5.00" x2="110.00" y2="10.00" class="frame"/><line x1="110.00" y1="287.00" x2="110.00" y2="292.00" class="frame"/><text x="135.00" y="8.90" class="label" font-size="2.6" text-anchor="middle">3</text><text x="135.00" y="290.90" class="label" font-size="2.6" text-anchor="middle">3</text><line x1="160.00" y1="5.00" x2="160.00" y2="10.00" class="frame"/><line x1="160.00" y1="287.00" x2="160.00" y2="292.00" class="frame"/><text x="185.00" y="8.90" class="label" font-size="2.6" text-anchor="middle">4</text><text x="185.00" y="290.90" class="label" font-size="2.6" text-anchor="middle">4</text><line x1="210.00" y1="5.00" x2="210.00" y2="10.00" class="frame"/><line x1="210.00" y1="287.00" x2="210.00" y2="292.00" class="frame"/><text x="235.00" y="8.90" class="label" font-size="2.6" text-anchor="middle">5</text><text x="235.00" y="290.90" class="label" font-size="2.6" text-anchor="middle">5</text><line x1="260.00" y1="5.00" x2="260.00" y2="10.00" class="frame"/><line x1="260.00" y1="287.00" x2="260.00" y2="292.00" class="frame"/><text x="285.00" y="8.90" class="label" font-size="2.6" text-anchor="middle">6</text><text x="285.00" y="290.90" class="label" font-size="2.6" text-anchor="middle">6</text><line x1="310.00" y1="5.00" x2="310.00" y2="10.00" class="frame"/><line x1="310.00" y1="287.00" x2="310.00" y2="292.00" class="frame"/><text x="335.00" y="8.90" class="label" font-size="2.6" text-anchor="middle">7</text><text x="335.00" y="290.90" class="label" font-size="2.6" text-anchor="middle">7</text><line x1="360.00" y1="5.00" x2="360.00" y2="10.00" class="frame"/><line x1="360.00" y1="287.00" x2="360.00" y2="292.00" class="frame"/><text x="385.00" y="8.90" class="label" font-size="2.6" text-anchor="middle">8</text><text x="385.00" y="290.90" class="label" font-size="2.6" text-anchor="middle">8</text><text x="7.50" y="34.08" class="label" font-size="2.6" text-anchor="middle">A</text><text x="412.50" y="34.08" class="label" font-size="2.6" text-anchor="middle">A</text><line x1="5.00" y1="56.17" x2="10.00" y2="56.17" class="frame"/><line x1="410.00" y1="56.17" x2="415.00" y2="56.17" class="frame"/><text x="7.50" y="80.25" class="label" font-size="2.6" text-anchor="middle">B</text><text x="412.50" y="80.25" class="label" font-size="2.6" text-anchor="middle">B</text><line x1="5.00" y1="102.33" x2="10.00" y2="102.33" class="frame"/><line x1="410.00" y1="102.33" x2="415.00" y2="102.33" class="frame"/><text x="7.50" y="126.42" class="label" font-size="2.6" text-anchor="middle">C</text><text x="412.50" y="126.42" class="label" font-size="2.6" text-anchor="middle">C</text><line x1="5.00" y1="148.50" x2="10.00" y2="148.50" class="frame"/><line x1="410.00" y1="148.50" x2="415.00" y2="148.50" class="frame"/><text x="7.50" y="172.58" class="label" font-size="2.6" text-anchor="middle">D</text><text x="412.50" y="172.58" class="label" font-size="2.6" text-anchor="middle">D</text><line x1="5.00" y1="194.67" x2="10.00" y2="194.67" class="frame"/><line x1="410.00" y1="194.67" x2="415.00" y2="194.67" class="frame"/><text x="7.50" y="218.75" class="label" font-size="2.6" text-anchor="middle">E</text><text x="412.50" y="218.75" class="label" font-size="2.6" text-anchor="middle">E</text><line x1="5.00" y1="240.83" x2="10.00" y2="240.83" class="frame"/><line x1="410.00" y1="240.83" x2="415.00" y2="240.83" class="frame"/><text x="7.50" y="264.92" class="label" font-size="2.6" text-anchor="middle">F</text><text x="412.50" y="264.92" class="label" font-size="2.6" text-anchor="middle">F</text><rect x="10.00" y="10.00" width="400.00" height="8.00" class="head"/><path d="M10 18 H410" stroke="#ff2a2a" stroke-width=".7"/><text x="14.00" y="15.60" class="label-bold" font-size="3.6" text-anchor="start">REDLINE / RL-MB-01</text><text x="80.00" y="15.60" class="accent" font-size="2.5" text-anchor="start">CONCEPT STUDY - PROVISIONAL DIMENSIONS - DO NOT BUILD WITHOUT REVIEW</text><rect x="318.00" y="21.00" width="84.00" height="9.20" class="frame"/><rect x="318.00" y="21.00" width="84.00" height="4.60" class="head"/><text x="319.40" y="24.13" class="label-bold" font-size="2.2" text-anchor="start">REV</text><line x1="328.00" y1="21.00" x2="328.00" y2="30.20" class="grid-line"/><text x="329.40" y="24.13" class="label-bold" font-size="2.2" text-anchor="start">DESCRIPTION</text><line x1="380.00" y1="21.00" x2="380.00" y2="30.20" class="grid-line"/><text x="381.40" y="24.13" class="label-bold" font-size="2.2" text-anchor="start">DATE</text><line x1="318.00" y1="25.60" x2="402.00" y2="25.60" class="grid-line"/><text x="319.40" y="28.73" class="label" font-size="2.1" text-anchor="start">0</text><line x1="328.00" y1="21.00" x2="328.00" y2="30.20" class="grid-line"/><text x="329.40" y="28.73" class="label" font-size="2.1" text-anchor="start">Hardware concept RL-MB-01</text><line x1="380.00" y1="21.00" x2="380.00" y2="30.20" class="grid-line"/><text x="381.40" y="28.73" class="label" font-size="2.1" text-anchor="start">2026-10-05</text><path d="M10 250 H410 M232 250 V287 M232 263 H410 M232 275 H410 M292 263 V287 M342 263 V287 M372 263 V287" class="border"/><text x="14.00" y="256.00" class="label-bold" font-size="2.8" text-anchor="start">GENERAL NOTES</text><text x="14.00" y="262.00" class="sub" font-size="2.35" text-anchor="start">1. Dimensions in mm. Third-angle projection. General tolerances to be defined (ISO 2768-m proposed).</text><text x="14.00" y="267.60" class="sub" font-size="2.35" text-anchor="start">2. Board outlines: maker or distributor data cited in hardware/netlist.json; others are indicative envelopes.</text><text x="14.00" y="273.20" class="sub" font-size="2.35" text-anchor="start">3. Heights, connectors and positions of openings are indicative and must be measured on the chosen parts.</text><text x="14.00" y="278.80" class="sub" font-size="2.35" text-anchor="start">4. Geometry and sheets generated by cad/generate.py (build123d 0.13.0); checks run with --check.</text><text x="236.00" y="256.50" class="label-bold" font-size="4" text-anchor="start">WIRING AND NET LIST</text><text x="236.00" y="261.00" class="sub" font-size="2.4" text-anchor="start">Redline tracker and black box, board RL-MB-01 (nRF9151)</text><text x="236.00" y="267.00" class="sub" font-size="2" text-anchor="start">DRAWING NO.</text><text x="236.00" y="272.40" class="label-bold" font-size="2.8" text-anchor="start">RL-EL-05</text><text x="296.00" y="267.00" class="sub" font-size="2" text-anchor="start">SCALE</text><text x="296.00" y="272.40" class="label-bold" font-size="2.8" text-anchor="start">tables</text><text x="346.00" y="267.00" class="sub" font-size="2" text-anchor="start">REV</text><text x="346.00" y="272.40" class="label-bold" font-size="2.8" text-anchor="start">0</text><text x="376.00" y="267.00" class="sub" font-size="2" text-anchor="start">SHEET</text><text x="376.00" y="272.40" class="label-bold" font-size="2.8" text-anchor="start">5 / 5</text><text x="236.00" y="279.50" class="sub" font-size="2.2" text-anchor="start">DRAWN BY: M. ABAAQIL</text><text x="296.00" y="279.50" class="sub" font-size="2.2" text-anchor="start">DATE: 2026-10-05</text><text x="346.00" y="279.50" class="sub" font-size="2.2" text-anchor="start">MATERIAL: to be defined</text><text x="14.00" y="28.00" class="label-bold" font-size="3" text-anchor="start">NET LIST: 33 NETS, ALL TERMINALS UNIQUE (CHECKED)</text><rect x="14.00" y="31.00" width="138.00" height="180.20" class="frame"/><rect x="14.00" y="31.00" width="138.00" height="5.30" class="head"/><text x="15.40" y="34.60" class="label-bold" font-size="1.9" text-anchor="start">NET</text><line x1="38.00" y1="31.00" x2="38.00" y2="211.20" class="grid-line"/><text x="39.40" y="34.60" class="label-bold" font-size="1.9" text-anchor="start">CLASS</text><line x1="52.00" y1="31.00" x2="52.00" y2="211.20" class="grid-line"/><text x="53.40" y="34.60" class="label-bold" font-size="1.9" text-anchor="start">TERMINALS</text><line x1="14.00" y1="36.30" x2="152.00" y2="36.30" class="grid-line"/><text x="15.40" y="39.90" class="label" font-size="1.75" text-anchor="start">VBUS</text><line x1="38.00" y1="31.00" x2="38.00" y2="211.20" class="grid-line"/><text x="39.40" y="39.90" class="label" font-size="1.75" text-anchor="start">power</text><line x1="52.00" y1="31.00" x2="52.00" y2="211.20" class="grid-line"/><text x="53.40" y="39.90" class="label" font-size="1.75" text-anchor="start">J1.VBUS U4.VBUS</text><line x1="14.00" y1="41.60" x2="152.00" y2="41.60" class="grid-line"/><text x="15.40" y="45.20" class="label" font-size="1.75" text-anchor="start">VBAT</text><line x1="38.00" y1="31.00" x2="38.00" y2="211.20" class="grid-line"/><text x="39.40" y="45.20" class="label" font-size="1.75" text-anchor="start">power</text><line x1="52.00" y1="31.00" x2="52.00" y2="211.20" class="grid-line"/><text x="53.40" y="45.20" class="label" font-size="1.75" text-anchor="start">BT1.+ J3.1 U4.VBAT</text><line x1="14.00" y1="46.90" x2="152.00" y2="46.90" class="grid-line"/><text x="15.40" y="50.50" class="label" font-size="1.75" text-anchor="start">VSYS</text><line x1="38.00" y1="31.00" x2="38.00" y2="211.20" class="grid-line"/><text x="39.40" y="50.50" class="label" font-size="1.75" text-anchor="start">power</text><line x1="52.00" y1="31.00" x2="52.00" y2="211.20" class="grid-line"/><text x="53.40" y="50.50" class="label" font-size="1.75" text-anchor="start">U4.VSYS U1.VDD U7.VIN D1.A</text><line x1="14.00" y1="52.20" x2="152.00" y2="52.20" class="grid-line"/><text x="15.40" y="55.80" class="label" font-size="1.75" text-anchor="start">VCAP</text><line x1="38.00" y1="31.00" x2="38.00" y2="211.20" class="grid-line"/><text x="39.40" y="55.80" class="label" font-size="1.75" text-anchor="start">power</text><line x1="52.00" y1="31.00" x2="52.00" y2="211.20" class="grid-line"/><text x="53.40" y="55.80" class="label" font-size="1.75" text-anchor="start">U7.CAP C1.+</text><line x1="14.00" y1="57.50" x2="152.00" y2="57.50" class="grid-line"/><text x="15.40" y="61.10" class="label" font-size="1.75" text-anchor="start">V1V8</text><line x1="38.00" y1="31.00" x2="38.00" y2="211.20" class="grid-line"/><text x="39.40" y="61.10" class="label" font-size="1.75" text-anchor="start">power</text><line x1="52.00" y1="31.00" x2="52.00" y2="211.20" class="grid-line"/><text x="53.40" y="61.10" class="label" font-size="1.75" text-anchor="start">U4.BUCK1 U1.VDD_GPIO U2.VDD U3.VDD U5.VCC U6.VCC J4.VREF</text><line x1="14.00" y1="62.80" x2="152.00" y2="62.80" class="grid-line"/><text x="15.40" y="66.40" class="label" font-size="1.75" text-anchor="start">GND</text><line x1="38.00" y1="31.00" x2="38.00" y2="211.20" class="grid-line"/><text x="39.40" y="66.40" class="label" font-size="1.75" text-anchor="start">ground</text><line x1="52.00" y1="31.00" x2="52.00" y2="211.20" class="grid-line"/><text x="53.40" y="66.40" class="label" font-size="1.75" text-anchor="start">U4.GND U1.GND U2.GND U3.GND U5.GND U6.GND U7.GND C1.- +9</text><line x1="14.00" y1="68.10" x2="152.00" y2="68.10" class="grid-line"/><text x="15.40" y="71.70" class="label" font-size="1.75" text-anchor="start">CC1</text><line x1="38.00" y1="31.00" x2="38.00" y2="211.20" class="grid-line"/><text x="39.40" y="71.70" class="label" font-size="1.75" text-anchor="start">signal</text><line x1="52.00" y1="31.00" x2="52.00" y2="211.20" class="grid-line"/><text x="53.40" y="71.70" class="label" font-size="1.75" text-anchor="start">J1.CC1 R1.1</text><line x1="14.00" y1="73.40" x2="152.00" y2="73.40" class="grid-line"/><text x="15.40" y="77.00" class="label" font-size="1.75" text-anchor="start">CC2</text><line x1="38.00" y1="31.00" x2="38.00" y2="211.20" class="grid-line"/><text x="39.40" y="77.00" class="label" font-size="1.75" text-anchor="start">signal</text><line x1="52.00" y1="31.00" x2="52.00" y2="211.20" class="grid-line"/><text x="53.40" y="77.00" class="label" font-size="1.75" text-anchor="start">J1.CC2 R2.1</text><line x1="14.00" y1="78.70" x2="152.00" y2="78.70" class="grid-line"/><text x="15.40" y="82.30" class="label" font-size="1.75" text-anchor="start">SPI_SCK</text><line x1="38.00" y1="31.00" x2="38.00" y2="211.20" class="grid-line"/><text x="39.40" y="82.30" class="label" font-size="1.75" text-anchor="start">bus</text><line x1="52.00" y1="31.00" x2="52.00" y2="211.20" class="grid-line"/><text x="53.40" y="82.30" class="label" font-size="1.75" text-anchor="start">U1.SPI_SCK U2.SCLK U5.SCLK</text><line x1="14.00" y1="84.00" x2="152.00" y2="84.00" class="grid-line"/><text x="15.40" y="87.60" class="label" font-size="1.75" text-anchor="start">SPI_MOSI</text><line x1="38.00" y1="31.00" x2="38.00" y2="211.20" class="grid-line"/><text x="39.40" y="87.60" class="label" font-size="1.75" text-anchor="start">bus</text><line x1="52.00" y1="31.00" x2="52.00" y2="211.20" class="grid-line"/><text x="53.40" y="87.60" class="label" font-size="1.75" text-anchor="start">U1.SPI_MOSI U2.MOSI U5.SI</text><line x1="14.00" y1="89.30" x2="152.00" y2="89.30" class="grid-line"/><text x="15.40" y="92.90" class="label" font-size="1.75" text-anchor="start">SPI_MISO</text><line x1="38.00" y1="31.00" x2="38.00" y2="211.20" class="grid-line"/><text x="39.40" y="92.90" class="label" font-size="1.75" text-anchor="start">bus</text><line x1="52.00" y1="31.00" x2="52.00" y2="211.20" class="grid-line"/><text x="53.40" y="92.90" class="label" font-size="1.75" text-anchor="start">U1.SPI_MISO U2.MISO U5.SO</text><line x1="14.00" y1="94.60" x2="152.00" y2="94.60" class="grid-line"/><text x="15.40" y="98.20" class="label" font-size="1.75" text-anchor="start">CS_IMPACT</text><line x1="38.00" y1="31.00" x2="38.00" y2="211.20" class="grid-line"/><text x="39.40" y="98.20" class="label" font-size="1.75" text-anchor="start">bus</text><line x1="52.00" y1="31.00" x2="52.00" y2="211.20" class="grid-line"/><text x="53.40" y="98.20" class="label" font-size="1.75" text-anchor="start">U1.CS0 U2.CS</text><line x1="14.00" y1="99.90" x2="152.00" y2="99.90" class="grid-line"/><text x="15.40" y="103.50" class="label" font-size="1.75" text-anchor="start">CS_BLACKBOX</text><line x1="38.00" y1="31.00" x2="38.00" y2="211.20" class="grid-line"/><text x="39.40" y="103.50" class="label" font-size="1.75" text-anchor="start">bus</text><line x1="52.00" y1="31.00" x2="52.00" y2="211.20" class="grid-line"/><text x="53.40" y="103.50" class="label" font-size="1.75" text-anchor="start">U1.CS1 U5.CS</text><line x1="14.00" y1="105.20" x2="152.00" y2="105.20" class="grid-line"/><text x="15.40" y="108.80" class="label" font-size="1.75" text-anchor="start">I2C_SDA</text><line x1="38.00" y1="31.00" x2="38.00" y2="211.20" class="grid-line"/><text x="39.40" y="108.80" class="label" font-size="1.75" text-anchor="start">bus</text><line x1="52.00" y1="31.00" x2="52.00" y2="211.20" class="grid-line"/><text x="53.40" y="108.80" class="label" font-size="1.75" text-anchor="start">U1.TWI_SDA U3.SDA U4.SDA</text><line x1="14.00" y1="110.50" x2="152.00" y2="110.50" class="grid-line"/><text x="15.40" y="114.10" class="label" font-size="1.75" text-anchor="start">I2C_SCL</text><line x1="38.00" y1="31.00" x2="38.00" y2="211.20" class="grid-line"/><text x="39.40" y="114.10" class="label" font-size="1.75" text-anchor="start">bus</text><line x1="52.00" y1="31.00" x2="52.00" y2="211.20" class="grid-line"/><text x="53.40" y="114.10" class="label" font-size="1.75" text-anchor="start">U1.TWI_SCL U3.SCL U4.SCL</text><line x1="14.00" y1="115.80" x2="152.00" y2="115.80" class="grid-line"/><text x="15.40" y="119.40" class="label" font-size="1.75" text-anchor="start">INT_IMPACT</text><line x1="38.00" y1="31.00" x2="38.00" y2="211.20" class="grid-line"/><text x="39.40" y="119.40" class="label" font-size="1.75" text-anchor="start">signal</text><line x1="52.00" y1="31.00" x2="52.00" y2="211.20" class="grid-line"/><text x="53.40" y="119.40" class="label" font-size="1.75" text-anchor="start">U2.INT1 U1.GPIO_INT1</text><line x1="14.00" y1="121.10" x2="152.00" y2="121.10" class="grid-line"/><text x="15.40" y="124.70" class="label" font-size="1.75" text-anchor="start">INT_MOTION</text><line x1="38.00" y1="31.00" x2="38.00" y2="211.20" class="grid-line"/><text x="39.40" y="124.70" class="label" font-size="1.75" text-anchor="start">signal</text><line x1="52.00" y1="31.00" x2="52.00" y2="211.20" class="grid-line"/><text x="53.40" y="124.70" class="label" font-size="1.75" text-anchor="start">U3.INT1 U1.GPIO_INT2</text><line x1="14.00" y1="126.40" x2="152.00" y2="126.40" class="grid-line"/><text x="15.40" y="130.00" class="label" font-size="1.75" text-anchor="start">PMIC_INT</text><line x1="38.00" y1="31.00" x2="38.00" y2="211.20" class="grid-line"/><text x="39.40" y="130.00" class="label" font-size="1.75" text-anchor="start">signal</text><line x1="52.00" y1="31.00" x2="52.00" y2="211.20" class="grid-line"/><text x="53.40" y="130.00" class="label" font-size="1.75" text-anchor="start">U4.GPIO0 U1.GPIO_INT3</text><line x1="14.00" y1="131.70" x2="152.00" y2="131.70" class="grid-line"/><text x="15.40" y="135.30" class="label" font-size="1.75" text-anchor="start">PWR_FAIL</text><line x1="38.00" y1="31.00" x2="38.00" y2="211.20" class="grid-line"/><text x="39.40" y="135.30" class="label" font-size="1.75" text-anchor="start">signal</text><line x1="52.00" y1="31.00" x2="52.00" y2="211.20" class="grid-line"/><text x="53.40" y="135.30" class="label" font-size="1.75" text-anchor="start">U7.PG U1.GPIO_PWRFAIL</text><line x1="14.00" y1="137.00" x2="152.00" y2="137.00" class="grid-line"/><text x="15.40" y="140.60" class="label" font-size="1.75" text-anchor="start">RF_CELL</text><line x1="38.00" y1="31.00" x2="38.00" y2="211.20" class="grid-line"/><text x="39.40" y="140.60" class="label" font-size="1.75" text-anchor="start">RF</text><line x1="52.00" y1="31.00" x2="52.00" y2="211.20" class="grid-line"/><text x="53.40" y="140.60" class="label" font-size="1.75" text-anchor="start">U1.ANT ANT1.FEED</text><line x1="14.00" y1="142.30" x2="152.00" y2="142.30" class="grid-line"/><text x="15.40" y="145.90" class="label" font-size="1.75" text-anchor="start">GNSS_ANT</text><line x1="38.00" y1="31.00" x2="38.00" y2="211.20" class="grid-line"/><text x="39.40" y="145.90" class="label" font-size="1.75" text-anchor="start">RF</text><line x1="52.00" y1="31.00" x2="52.00" y2="211.20" class="grid-line"/><text x="53.40" y="145.90" class="label" font-size="1.75" text-anchor="start">ANT2.FEED U6.IN</text><line x1="14.00" y1="147.60" x2="152.00" y2="147.60" class="grid-line"/><text x="15.40" y="151.20" class="label" font-size="1.75" text-anchor="start">GNSS_RF</text><line x1="38.00" y1="31.00" x2="38.00" y2="211.20" class="grid-line"/><text x="39.40" y="151.20" class="label" font-size="1.75" text-anchor="start">RF</text><line x1="52.00" y1="31.00" x2="52.00" y2="211.20" class="grid-line"/><text x="53.40" y="151.20" class="label" font-size="1.75" text-anchor="start">U6.OUT U1.GPS</text><line x1="14.00" y1="152.90" x2="152.00" y2="152.90" class="grid-line"/><text x="15.40" y="156.50" class="label" font-size="1.75" text-anchor="start">LNA_EN</text><line x1="38.00" y1="31.00" x2="38.00" y2="211.20" class="grid-line"/><text x="39.40" y="156.50" class="label" font-size="1.75" text-anchor="start">signal</text><line x1="52.00" y1="31.00" x2="52.00" y2="211.20" class="grid-line"/><text x="53.40" y="156.50" class="label" font-size="1.75" text-anchor="start">U1.COEX0 U6.EN</text><line x1="14.00" y1="158.20" x2="152.00" y2="158.20" class="grid-line"/><text x="15.40" y="161.80" class="label" font-size="1.75" text-anchor="start">SIM_VCC</text><line x1="38.00" y1="31.00" x2="38.00" y2="211.20" class="grid-line"/><text x="39.40" y="161.80" class="label" font-size="1.75" text-anchor="start">bus</text><line x1="52.00" y1="31.00" x2="52.00" y2="211.20" class="grid-line"/><text x="53.40" y="161.80" class="label" font-size="1.75" text-anchor="start">U1.SIM_VCC J2.VCC</text><line x1="14.00" y1="163.50" x2="152.00" y2="163.50" class="grid-line"/><text x="15.40" y="167.10" class="label" font-size="1.75" text-anchor="start">SIM_CLK</text><line x1="38.00" y1="31.00" x2="38.00" y2="211.20" class="grid-line"/><text x="39.40" y="167.10" class="label" font-size="1.75" text-anchor="start">bus</text><line x1="52.00" y1="31.00" x2="52.00" y2="211.20" class="grid-line"/><text x="53.40" y="167.10" class="label" font-size="1.75" text-anchor="start">U1.SIM_CLK J2.CLK</text><line x1="14.00" y1="168.80" x2="152.00" y2="168.80" class="grid-line"/><text x="15.40" y="172.40" class="label" font-size="1.75" text-anchor="start">SIM_IO</text><line x1="38.00" y1="31.00" x2="38.00" y2="211.20" class="grid-line"/><text x="39.40" y="172.40" class="label" font-size="1.75" text-anchor="start">bus</text><line x1="52.00" y1="31.00" x2="52.00" y2="211.20" class="grid-line"/><text x="53.40" y="172.40" class="label" font-size="1.75" text-anchor="start">U1.SIM_IO J2.IO</text><line x1="14.00" y1="174.10" x2="152.00" y2="174.10" class="grid-line"/><text x="15.40" y="177.70" class="label" font-size="1.75" text-anchor="start">SIM_RST</text><line x1="38.00" y1="31.00" x2="38.00" y2="211.20" class="grid-line"/><text x="39.40" y="177.70" class="label" font-size="1.75" text-anchor="start">bus</text><line x1="52.00" y1="31.00" x2="52.00" y2="211.20" class="grid-line"/><text x="53.40" y="177.70" class="label" font-size="1.75" text-anchor="start">U1.SIM_RST J2.RST</text><line x1="14.00" y1="179.40" x2="152.00" y2="179.40" class="grid-line"/><text x="15.40" y="183.00" class="label" font-size="1.75" text-anchor="start">BUTTON</text><line x1="38.00" y1="31.00" x2="38.00" y2="211.20" class="grid-line"/><text x="39.40" y="183.00" class="label" font-size="1.75" text-anchor="start">signal</text><line x1="52.00" y1="31.00" x2="52.00" y2="211.20" class="grid-line"/><text x="53.40" y="183.00" class="label" font-size="1.75" text-anchor="start">SW1.1 U1.GPIO_BTN</text><line x1="14.00" y1="184.70" x2="152.00" y2="184.70" class="grid-line"/><text x="15.40" y="188.30" class="label" font-size="1.75" text-anchor="start">TAMPER</text><line x1="38.00" y1="31.00" x2="38.00" y2="211.20" class="grid-line"/><text x="39.40" y="188.30" class="label" font-size="1.75" text-anchor="start">signal</text><line x1="52.00" y1="31.00" x2="52.00" y2="211.20" class="grid-line"/><text x="53.40" y="188.30" class="label" font-size="1.75" text-anchor="start">TS1.1 U1.GPIO_TAMPER</text><line x1="14.00" y1="190.00" x2="152.00" y2="190.00" class="grid-line"/><text x="15.40" y="193.60" class="label" font-size="1.75" text-anchor="start">LED_SINK</text><line x1="38.00" y1="31.00" x2="38.00" y2="211.20" class="grid-line"/><text x="39.40" y="193.60" class="label" font-size="1.75" text-anchor="start">signal</text><line x1="52.00" y1="31.00" x2="52.00" y2="211.20" class="grid-line"/><text x="53.40" y="193.60" class="label" font-size="1.75" text-anchor="start">D1.K U4.LED0</text><line x1="14.00" y1="195.30" x2="152.00" y2="195.30" class="grid-line"/><text x="15.40" y="198.90" class="label" font-size="1.75" text-anchor="start">SWDIO</text><line x1="38.00" y1="31.00" x2="38.00" y2="211.20" class="grid-line"/><text x="39.40" y="198.90" class="label" font-size="1.75" text-anchor="start">bus</text><line x1="52.00" y1="31.00" x2="52.00" y2="211.20" class="grid-line"/><text x="53.40" y="198.90" class="label" font-size="1.75" text-anchor="start">U1.SWDIO J4.SWDIO</text><line x1="14.00" y1="200.60" x2="152.00" y2="200.60" class="grid-line"/><text x="15.40" y="204.20" class="label" font-size="1.75" text-anchor="start">SWDCLK</text><line x1="38.00" y1="31.00" x2="38.00" y2="211.20" class="grid-line"/><text x="39.40" y="204.20" class="label" font-size="1.75" text-anchor="start">bus</text><line x1="52.00" y1="31.00" x2="52.00" y2="211.20" class="grid-line"/><text x="53.40" y="204.20" class="label" font-size="1.75" text-anchor="start">U1.SWDCLK J4.SWDCLK</text><line x1="14.00" y1="205.90" x2="152.00" y2="205.90" class="grid-line"/><text x="15.40" y="209.50" class="label" font-size="1.75" text-anchor="start">NRESET</text><line x1="38.00" y1="31.00" x2="38.00" y2="211.20" class="grid-line"/><text x="39.40" y="209.50" class="label" font-size="1.75" text-anchor="start">signal</text><line x1="52.00" y1="31.00" x2="52.00" y2="211.20" class="grid-line"/><text x="53.40" y="209.50" class="label" font-size="1.75" text-anchor="start">U1.RESET J4.RESET</text><text x="168.00" y="28.00" class="label-bold" font-size="3" text-anchor="start">CONNECTOR PIN-OUTS</text><rect x="168.00" y="31.00" width="84.00" height="21.50" class="frame"/><rect x="168.00" y="31.00" width="84.00" height="4.30" class="head"/><text x="169.40" y="33.92" class="label-bold" font-size="1.9" text-anchor="start">J1 USB-C</text><line x1="202.00" y1="31.00" x2="202.00" y2="52.50" class="grid-line"/><text x="203.40" y="33.92" class="label-bold" font-size="1.9" text-anchor="start">PIN</text><line x1="216.00" y1="31.00" x2="216.00" y2="52.50" class="grid-line"/><text x="217.40" y="33.92" class="label-bold" font-size="1.9" text-anchor="start">NET</text><line x1="168.00" y1="35.30" x2="252.00" y2="35.30" class="grid-line"/><text x="169.40" y="38.22" class="label" font-size="1.8" text-anchor="start"></text><line x1="202.00" y1="31.00" x2="202.00" y2="52.50" class="grid-line"/><text x="203.40" y="38.22" class="label" font-size="1.8" text-anchor="start">CC1</text><line x1="216.00" y1="31.00" x2="216.00" y2="52.50" class="grid-line"/><text x="217.40" y="38.22" class="label" font-size="1.8" text-anchor="start">CC1</text><line x1="168.00" y1="39.60" x2="252.00" y2="39.60" class="grid-line"/><text x="169.40" y="42.52" class="label" font-size="1.8" text-anchor="start"></text><line x1="202.00" y1="31.00" x2="202.00" y2="52.50" class="grid-line"/><text x="203.40" y="42.52" class="label" font-size="1.8" text-anchor="start">CC2</text><line x1="216.00" y1="31.00" x2="216.00" y2="52.50" class="grid-line"/><text x="217.40" y="42.52" class="label" font-size="1.8" text-anchor="start">CC2</text><line x1="168.00" y1="43.90" x2="252.00" y2="43.90" class="grid-line"/><text x="169.40" y="46.82" class="label" font-size="1.8" text-anchor="start"></text><line x1="202.00" y1="31.00" x2="202.00" y2="52.50" class="grid-line"/><text x="203.40" y="46.82" class="label" font-size="1.8" text-anchor="start">GND</text><line x1="216.00" y1="31.00" x2="216.00" y2="52.50" class="grid-line"/><text x="217.40" y="46.82" class="label" font-size="1.8" text-anchor="start">GND</text><line x1="168.00" y1="48.20" x2="252.00" y2="48.20" class="grid-line"/><text x="169.40" y="51.12" class="label" font-size="1.8" text-anchor="start"></text><line x1="202.00" y1="31.00" x2="202.00" y2="52.50" class="grid-line"/><text x="203.40" y="51.12" class="label" font-size="1.8" text-anchor="start">VBUS</text><line x1="216.00" y1="31.00" x2="216.00" y2="52.50" class="grid-line"/><text x="217.40" y="51.12" class="label" font-size="1.8" text-anchor="start">VBUS</text><rect x="168.00" y="56.00" width="84.00" height="25.80" class="frame"/><rect x="168.00" y="56.00" width="84.00" height="4.30" class="head"/><text x="169.40" y="58.92" class="label-bold" font-size="1.9" text-anchor="start">J2 eSIM MFF2</text><line x1="202.00" y1="56.00" x2="202.00" y2="81.80" class="grid-line"/><text x="203.40" y="58.92" class="label-bold" font-size="1.9" text-anchor="start">PIN</text><line x1="216.00" y1="56.00" x2="216.00" y2="81.80" class="grid-line"/><text x="217.40" y="58.92" class="label-bold" font-size="1.9" text-anchor="start">NET</text><line x1="168.00" y1="60.30" x2="252.00" y2="60.30" class="grid-line"/><text x="169.40" y="63.22" class="label" font-size="1.8" text-anchor="start"></text><line x1="202.00" y1="56.00" x2="202.00" y2="81.80" class="grid-line"/><text x="203.40" y="63.22" class="label" font-size="1.8" text-anchor="start">CLK</text><line x1="216.00" y1="56.00" x2="216.00" y2="81.80" class="grid-line"/><text x="217.40" y="63.22" class="label" font-size="1.8" text-anchor="start">SIM_CLK</text><line x1="168.00" y1="64.60" x2="252.00" y2="64.60" class="grid-line"/><text x="169.40" y="67.52" class="label" font-size="1.8" text-anchor="start"></text><line x1="202.00" y1="56.00" x2="202.00" y2="81.80" class="grid-line"/><text x="203.40" y="67.52" class="label" font-size="1.8" text-anchor="start">GND</text><line x1="216.00" y1="56.00" x2="216.00" y2="81.80" class="grid-line"/><text x="217.40" y="67.52" class="label" font-size="1.8" text-anchor="start">GND</text><line x1="168.00" y1="68.90" x2="252.00" y2="68.90" class="grid-line"/><text x="169.40" y="71.82" class="label" font-size="1.8" text-anchor="start"></text><line x1="202.00" y1="56.00" x2="202.00" y2="81.80" class="grid-line"/><text x="203.40" y="71.82" class="label" font-size="1.8" text-anchor="start">IO</text><line x1="216.00" y1="56.00" x2="216.00" y2="81.80" class="grid-line"/><text x="217.40" y="71.82" class="label" font-size="1.8" text-anchor="start">SIM_IO</text><line x1="168.00" y1="73.20" x2="252.00" y2="73.20" class="grid-line"/><text x="169.40" y="76.12" class="label" font-size="1.8" text-anchor="start"></text><line x1="202.00" y1="56.00" x2="202.00" y2="81.80" class="grid-line"/><text x="203.40" y="76.12" class="label" font-size="1.8" text-anchor="start">RST</text><line x1="216.00" y1="56.00" x2="216.00" y2="81.80" class="grid-line"/><text x="217.40" y="76.12" class="label" font-size="1.8" text-anchor="start">SIM_RST</text><line x1="168.00" y1="77.50" x2="252.00" y2="77.50" class="grid-line"/><text x="169.40" y="80.42" class="label" font-size="1.8" text-anchor="start"></text><line x1="202.00" y1="56.00" x2="202.00" y2="81.80" class="grid-line"/><text x="203.40" y="80.42" class="label" font-size="1.8" text-anchor="start">VCC</text><line x1="216.00" y1="56.00" x2="216.00" y2="81.80" class="grid-line"/><text x="217.40" y="80.42" class="label" font-size="1.8" text-anchor="start">SIM_VCC</text><rect x="168.00" y="85.30" width="84.00" height="12.90" class="frame"/><rect x="168.00" y="85.30" width="84.00" height="4.30" class="head"/><text x="169.40" y="88.22" class="label-bold" font-size="1.9" text-anchor="start">J3 Battery JST-PH 2</text><line x1="202.00" y1="85.30" x2="202.00" y2="98.20" class="grid-line"/><text x="203.40" y="88.22" class="label-bold" font-size="1.9" text-anchor="start">PIN</text><line x1="216.00" y1="85.30" x2="216.00" y2="98.20" class="grid-line"/><text x="217.40" y="88.22" class="label-bold" font-size="1.9" text-anchor="start">NET</text><line x1="168.00" y1="89.60" x2="252.00" y2="89.60" class="grid-line"/><text x="169.40" y="92.52" class="label" font-size="1.8" text-anchor="start"></text><line x1="202.00" y1="85.30" x2="202.00" y2="98.20" class="grid-line"/><text x="203.40" y="92.52" class="label" font-size="1.8" text-anchor="start">1</text><line x1="216.00" y1="85.30" x2="216.00" y2="98.20" class="grid-line"/><text x="217.40" y="92.52" class="label" font-size="1.8" text-anchor="start">VBAT</text><line x1="168.00" y1="93.90" x2="252.00" y2="93.90" class="grid-line"/><text x="169.40" y="96.82" class="label" font-size="1.8" text-anchor="start"></text><line x1="202.00" y1="85.30" x2="202.00" y2="98.20" class="grid-line"/><text x="203.40" y="96.82" class="label" font-size="1.8" text-anchor="start">2</text><line x1="216.00" y1="85.30" x2="216.00" y2="98.20" class="grid-line"/><text x="217.40" y="96.82" class="label" font-size="1.8" text-anchor="start">GND</text><rect x="168.00" y="101.70" width="84.00" height="25.80" class="frame"/><rect x="168.00" y="101.70" width="84.00" height="4.30" class="head"/><text x="169.40" y="104.62" class="label-bold" font-size="1.9" text-anchor="start">J4 SWD pads</text><line x1="202.00" y1="101.70" x2="202.00" y2="127.50" class="grid-line"/><text x="203.40" y="104.62" class="label-bold" font-size="1.9" text-anchor="start">PIN</text><line x1="216.00" y1="101.70" x2="216.00" y2="127.50" class="grid-line"/><text x="217.40" y="104.62" class="label-bold" font-size="1.9" text-anchor="start">NET</text><line x1="168.00" y1="106.00" x2="252.00" y2="106.00" class="grid-line"/><text x="169.40" y="108.92" class="label" font-size="1.8" text-anchor="start"></text><line x1="202.00" y1="101.70" x2="202.00" y2="127.50" class="grid-line"/><text x="203.40" y="108.92" class="label" font-size="1.8" text-anchor="start">GND</text><line x1="216.00" y1="101.70" x2="216.00" y2="127.50" class="grid-line"/><text x="217.40" y="108.92" class="label" font-size="1.8" text-anchor="start">GND</text><line x1="168.00" y1="110.30" x2="252.00" y2="110.30" class="grid-line"/><text x="169.40" y="113.22" class="label" font-size="1.8" text-anchor="start"></text><line x1="202.00" y1="101.70" x2="202.00" y2="127.50" class="grid-line"/><text x="203.40" y="113.22" class="label" font-size="1.8" text-anchor="start">RESET</text><line x1="216.00" y1="101.70" x2="216.00" y2="127.50" class="grid-line"/><text x="217.40" y="113.22" class="label" font-size="1.8" text-anchor="start">NRESET</text><line x1="168.00" y1="114.60" x2="252.00" y2="114.60" class="grid-line"/><text x="169.40" y="117.52" class="label" font-size="1.8" text-anchor="start"></text><line x1="202.00" y1="101.70" x2="202.00" y2="127.50" class="grid-line"/><text x="203.40" y="117.52" class="label" font-size="1.8" text-anchor="start">SWDCLK</text><line x1="216.00" y1="101.70" x2="216.00" y2="127.50" class="grid-line"/><text x="217.40" y="117.52" class="label" font-size="1.8" text-anchor="start">SWDCLK</text><line x1="168.00" y1="118.90" x2="252.00" y2="118.90" class="grid-line"/><text x="169.40" y="121.82" class="label" font-size="1.8" text-anchor="start"></text><line x1="202.00" y1="101.70" x2="202.00" y2="127.50" class="grid-line"/><text x="203.40" y="121.82" class="label" font-size="1.8" text-anchor="start">SWDIO</text><line x1="216.00" y1="101.70" x2="216.00" y2="127.50" class="grid-line"/><text x="217.40" y="121.82" class="label" font-size="1.8" text-anchor="start">SWDIO</text><line x1="168.00" y1="123.20" x2="252.00" y2="123.20" class="grid-line"/><text x="169.40" y="126.12" class="label" font-size="1.8" text-anchor="start"></text><line x1="202.00" y1="101.70" x2="202.00" y2="127.50" class="grid-line"/><text x="203.40" y="126.12" class="label" font-size="1.8" text-anchor="start">VREF</text><line x1="216.00" y1="101.70" x2="216.00" y2="127.50" class="grid-line"/><text x="217.40" y="126.12" class="label" font-size="1.8" text-anchor="start">V1V8</text><rect x="168.00" y="131.00" width="84.00" height="12.90" class="frame"/><rect x="168.00" y="131.00" width="84.00" height="4.30" class="head"/><text x="169.40" y="133.92" class="label-bold" font-size="1.9" text-anchor="start">SW1 Button</text><line x1="202.00" y1="131.00" x2="202.00" y2="143.90" class="grid-line"/><text x="203.40" y="133.92" class="label-bold" font-size="1.9" text-anchor="start">PIN</text><line x1="216.00" y1="131.00" x2="216.00" y2="143.90" class="grid-line"/><text x="217.40" y="133.92" class="label-bold" font-size="1.9" text-anchor="start">NET</text><line x1="168.00" y1="135.30" x2="252.00" y2="135.30" class="grid-line"/><text x="169.40" y="138.22" class="label" font-size="1.8" text-anchor="start"></text><line x1="202.00" y1="131.00" x2="202.00" y2="143.90" class="grid-line"/><text x="203.40" y="138.22" class="label" font-size="1.8" text-anchor="start">1</text><line x1="216.00" y1="131.00" x2="216.00" y2="143.90" class="grid-line"/><text x="217.40" y="138.22" class="label" font-size="1.8" text-anchor="start">BUTTON</text><line x1="168.00" y1="139.60" x2="252.00" y2="139.60" class="grid-line"/><text x="169.40" y="142.52" class="label" font-size="1.8" text-anchor="start"></text><line x1="202.00" y1="131.00" x2="202.00" y2="143.90" class="grid-line"/><text x="203.40" y="142.52" class="label" font-size="1.8" text-anchor="start">2</text><line x1="216.00" y1="131.00" x2="216.00" y2="143.90" class="grid-line"/><text x="217.40" y="142.52" class="label" font-size="1.8" text-anchor="start">GND</text><rect x="168.00" y="147.40" width="84.00" height="12.90" class="frame"/><rect x="168.00" y="147.40" width="84.00" height="4.30" class="head"/><text x="169.40" y="150.32" class="label-bold" font-size="1.9" text-anchor="start">TS1 Tamper switch</text><line x1="202.00" y1="147.40" x2="202.00" y2="160.30" class="grid-line"/><text x="203.40" y="150.32" class="label-bold" font-size="1.9" text-anchor="start">PIN</text><line x1="216.00" y1="147.40" x2="216.00" y2="160.30" class="grid-line"/><text x="217.40" y="150.32" class="label-bold" font-size="1.9" text-anchor="start">NET</text><line x1="168.00" y1="151.70" x2="252.00" y2="151.70" class="grid-line"/><text x="169.40" y="154.62" class="label" font-size="1.8" text-anchor="start"></text><line x1="202.00" y1="147.40" x2="202.00" y2="160.30" class="grid-line"/><text x="203.40" y="154.62" class="label" font-size="1.8" text-anchor="start">1</text><line x1="216.00" y1="147.40" x2="216.00" y2="160.30" class="grid-line"/><text x="217.40" y="154.62" class="label" font-size="1.8" text-anchor="start">TAMPER</text><line x1="168.00" y1="156.00" x2="252.00" y2="156.00" class="grid-line"/><text x="169.40" y="158.92" class="label" font-size="1.8" text-anchor="start"></text><line x1="202.00" y1="147.40" x2="202.00" y2="160.30" class="grid-line"/><text x="203.40" y="158.92" class="label" font-size="1.8" text-anchor="start">2</text><line x1="216.00" y1="147.40" x2="216.00" y2="160.30" class="grid-line"/><text x="217.40" y="158.92" class="label" font-size="1.8" text-anchor="start">GND</text><text x="258.00" y="28.00" class="label-bold" font-size="3" text-anchor="start">CABLE W1 (ONLY CABLE INSIDE)</text><rect x="258.00" y="34.00" width="30.00" height="16.00" class="frame"/><text x="273.00" y="43.20" class="label-bold" font-size="2.4" text-anchor="middle">BT1 Li-Po</text><text x="273.00" y="47.40" class="sub" font-size="2.0" text-anchor="middle">2000 mAh</text><line x1="288.00" y1="39.00" x2="336.00" y2="39.00" class="wire"/><line x1="288.00" y1="45.00" x2="336.00" y2="45.00" class="dimension"/><rect x="336.00" y="35.00" width="16.00" height="14.00" class="frame"/><text x="344.00" y="43.20" class="label-bold" font-size="2.6" text-anchor="middle">J3</text><text x="312.00" y="37.00" class="accent" font-size="2" text-anchor="middle">red: VBAT</text><text x="312.00" y="50.00" class="label" font-size="2" text-anchor="middle">black: GND</text><text x="258.00" y="57.00" class="sub" font-size="2.1" text-anchor="start">JST-PH 2 pins, 50 mm. Check polarity before plugging.</text><text x="258.00" y="64.00" class="label-bold" font-size="3" text-anchor="start">POWER-UP SEQUENCE</text><text x="258.00" y="70.00" class="label" font-size="2.05" text-anchor="start">1. VSYS from U4 (battery or USB-C).</text><text x="258.00" y="75.20" class="label" font-size="2.05" text-anchor="start">2. VDD of U1 and ENABLE high.</text><text x="258.00" y="80.40" class="label" font-size="2.05" text-anchor="start">3. BUCK1 starts 1.8 V more than 6 ms later.</text><text x="258.00" y="85.60" class="label" font-size="2.05" text-anchor="start">4. VDD_GPIO then follows, sensors wake.</text><text x="258.00" y="90.80" class="label" font-size="2.05" text-anchor="start">5. C1 charges through U7; PWR_FAIL goes high when full.</text><text x="258.00" y="96.00" class="label" font-size="2.05" text-anchor="start">6. On a supply drop U7 keeps VSYS up and raises PWR_FAIL: last gasp.</text><text x="258.00" y="108.00" class="label-bold" font-size="3" text-anchor="start">PASSIVE PARTS</text><text x="258.00" y="114.00" class="sub" font-size="2.05" text-anchor="start">Decoupling, RF matching, pull-ups and level parts are</text><text x="258.00" y="118.60" class="sub" font-size="2.05" text-anchor="start">added at routing; only R1 and R2 (USB-C CC pull-downs)</text><text x="258.00" y="123.20" class="sub" font-size="2.05" text-anchor="start">are modelled here because they define the connector.</text></svg>